<svg width="8000" height="8000" viewBox="0 0 8000 8000" fill="none" xmlns="http://www.w3.org/2000/svg">
<path d="M3425.1 38.2002C3875.11 -13.9363 4129.14 -11.8689 4569.09 39.2852L4508.44 381.11L4837.55 442.924L4898.73 104.349C5295.43 204.305 5510.96 286.594 5879.75 472.491L5706.75 776.662L5989.45 953.121L6173.52 650.038C6512.35 879.883 6690.4 1031.51 6986.81 1344.04L6698.84 1579.35L6913.49 1847.2L7201.47 1604.3C7407.35 1894.02 7507.52 2071.13 7661.39 2387.77L7298.52 2531.99L7417.2 2851.88L7787.45 2708.74C7943.94 3190.11 7993.37 3464.03 8000 3961.19H7589.65L7579.12 4301.15L7986.28 4319.05C7940.25 4829.08 7878.77 5090.21 7712.02 5516.2L7331.74 5343.79L7184.6 5647.96L7566.45 5832.3C7414.24 6119.42 7319.48 6270.44 7122.89 6514.91L6812.24 6240.58L6586.5 6494.86L6899.25 6773C6659.04 7019.72 6514.5 7142.5 6233.12 7324.4L6020.04 6979.57L5732.07 7157.95L5939.34 7503.87C5558.36 7717.99 5334.35 7800.13 4920.89 7895.34L4843.35 7503.87L4516.88 7572.72L4588.08 7962.02C4137.9 8013.05 3886.7 8012.25 3440.93 7962.02L3512.13 7572.72L3188.81 7513.64L3109.7 7902.39C2704.41 7808.01 2494.34 7719.5 2129.74 7531.52L2328.59 7189.94L2040.09 7015.36L1835.97 7361.28C1492.08 7126.85 1310.31 6978.56 1024.79 6674.32L1337.03 6408.11L1122.89 6145.14L801.156 6400.51C587.94 6110.98 486.264 5938.12 346.52 5625.73L727.321 5464.15L603.908 5148.05L215.717 5296.07C53.0886 4811.4 9.55946 4536.33 0 4040.91L415.085 4051.74L421.413 3703.66L10.0215 3688.48C47.3047 3203.77 112.631 2940.12 293.249 2481.56L658.756 2650.72L795.354 2338.42L434.071 2163.3C591.535 1877.36 690.34 1731.99 877.113 1487.72L1171.42 1739.3L1394.51 1483.38L1110.76 1222.59C1348.33 984.086 1493.27 863.318 1771.1 669.559L1969.41 981.856L2256.86 801.856L2066.46 490.391C2444.95 284.756 2671.64 197.358 3094.94 102.18L3160.87 444.012L3488.92 381.11L3425.1 38.2002ZM4154.06 7328.03C4124.36 7383.25 4066.03 7420.8 3998.94 7420.8C3933.67 7420.8 3876.7 7385.28 3846.31 7332.51C3836.54 7337.9 3825.68 7342.45 3814.94 7346.96C3795.57 7355.09 3776.57 7363.07 3764.98 7375.46C3746.13 7410.56 3730.23 7417.54 3699.38 7424C3654.16 7431.53 3630.83 7433.39 3590.04 7435.73C3589.98 7435.73 3574.31 7436.1 3556.87 7436.28C3699.09 7454.25 3843.98 7463.51 3991.03 7463.51C4138.66 7463.51 4284.12 7454.18 4426.88 7436.06C4416.8 7435.9 4409.61 7435.73 4409.61 7435.73C4368.82 7433.39 4345.49 7431.53 4300.27 7424C4269.43 7417.54 4253.51 7410.56 4234.67 7375.46C4222.64 7362.6 4203.12 7353.03 4183.41 7343.36C4173.35 7338.42 4163.25 7333.47 4154.06 7328.03ZM3425.25 6995.73C3409.17 6995.71 3405.49 6999.48 3387.66 7017.71C3385.33 7020.09 3382.77 7022.71 3379.91 7025.6C3355.49 7059.43 3349.54 7083.48 3357.51 7138.66C3399.91 7167.89 3422.99 7177.66 3473.78 7163.68L3483.59 7142.45C3484.04 7141.8 3484.48 7141.17 3484.9 7140.55C3497.25 7122.7 3501.93 7115.92 3513.78 7121.6C3521.97 7125.51 3531.06 7143.68 3536.65 7154.85C3539.42 7160.38 3541.33 7164.2 3541.83 7163.68L3544.18 7210.13C3581.2 7214.05 3609.12 7228.99 3632.18 7247.46C3641 7257.94 3654.53 7263.3 3665.92 7267.82C3676.49 7272.01 3685.21 7275.46 3686.58 7281.6C3693.14 7310.97 3663.45 7318.15 3625.78 7316.26C3613.39 7314.69 3608.16 7309.92 3602.13 7304.44C3596.88 7299.67 3591.05 7294.35 3579.38 7290.13C3561.78 7316.83 3546.57 7318.81 3517.42 7311.28C3502.59 7314.08 3495.95 7317.33 3487.11 7326.4C3476.81 7344.48 3477.5 7359.73 3483.59 7390.86C3495.59 7392.33 3503.52 7392.98 3512.4 7393.69C3516.85 7394.06 3521.54 7394.44 3527.11 7394.95C3535.62 7395.74 3541.22 7392.99 3546.18 7390.54C3550.07 7388.63 3553.56 7386.9 3557.76 7387.23C3562.55 7387.59 3566.37 7387.87 3568.98 7388.06L3569.77 7388.11C3578.59 7388.24 3586.64 7388.7 3594.35 7389.13C3621.23 7390.64 3643.84 7391.91 3679.65 7378.35C3719.53 7364.34 3727.97 7351.4 3731.91 7332.8C3734.18 7331.84 3736.36 7330.94 3738.45 7330.08C3755.62 7323.02 3767.21 7318.26 3781.51 7295.14V7239.39C3780.53 7195.73 3751.8 7166 3673.25 7130.66C3634.61 7087.72 3587.45 7056.36 3535.73 7061.79L3513.78 7067.2C3478.1 7092.7 3463.93 7092.19 3450.84 7046.93C3455.26 7025.76 3447.78 7009.78 3425.25 6995.73ZM4574.41 6995.73C4551.87 7009.78 4544.39 7025.76 4548.81 7046.93C4535.71 7092.19 4521.55 7092.7 4485.87 7067.2L4463.91 7061.79C4412.2 7056.36 4365.04 7087.72 4326.41 7130.66C4247.84 7166 4219.11 7195.73 4218.14 7239.39V7295.14C4232.43 7318.26 4244.02 7323.02 4261.2 7330.08C4263.29 7330.94 4265.47 7331.84 4267.74 7332.8C4271.68 7351.4 4280.13 7364.34 4320.01 7378.35C4355.81 7391.91 4378.42 7390.64 4405.3 7389.13C4413.01 7388.7 4421.06 7388.24 4429.88 7388.11L4430.66 7388.06C4433.29 7387.87 4437.11 7387.59 4441.88 7387.23C4446.09 7386.9 4449.59 7388.63 4453.47 7390.54C4458.43 7392.99 4464.03 7395.74 4472.54 7394.95C4478.1 7394.44 4482.79 7394.06 4487.25 7393.69C4496.12 7392.98 4504.05 7392.33 4516.06 7390.86C4522.14 7359.73 4522.83 7344.48 4512.54 7326.4C4503.69 7317.33 4497.05 7314.08 4482.24 7311.28C4453.07 7318.81 4437.87 7316.83 4420.27 7290.13C4408.6 7294.35 4402.76 7299.67 4397.52 7304.44C4391.5 7309.92 4386.25 7314.69 4373.87 7316.26C4336.2 7318.15 4306.51 7310.97 4313.07 7281.6C4314.44 7275.46 4323.16 7272.01 4333.74 7267.82C4345.12 7263.3 4358.65 7257.94 4367.47 7247.46C4390.54 7228.99 4418.45 7214.05 4455.47 7210.13L4457.82 7163.68C4458.32 7164.2 4460.23 7160.38 4463 7154.85C4468.58 7143.68 4477.68 7125.51 4485.87 7121.6C4497.72 7115.92 4502.41 7122.7 4514.75 7140.55V7140.56C4515.18 7141.17 4515.61 7141.81 4516.06 7142.45L4525.87 7163.68C4576.66 7177.66 4599.73 7167.89 4642.14 7138.66C4650.11 7083.48 4644.16 7059.43 4619.74 7025.6C4616.88 7022.71 4614.31 7020.09 4612 7017.71C4594.16 6999.48 4590.48 6995.71 4574.41 6995.73ZM3991.03 485.505C2081.05 485.505 532.699 2047.58 532.699 3974.51C532.699 5644.08 1695.09 7039.75 3247.94 7382.77L3244.98 7378.66L3228.98 7341.86C3199.63 7365.46 3155.1 7364.98 3094.58 7341.86C3036.15 7329.83 3012.72 7317.25 2991.11 7284.26C2974.83 7245.93 2970.93 7222.39 2971.38 7177.6C2940.24 7151.4 2936.51 7145.47 2927.11 7125.78C2906.11 7114.78 2894.96 7103.29 2888.71 7088C2878.18 7052.66 2879.68 7031.89 2897.78 6994.13C2933.11 6954.52 2963.6 6934.83 3040.71 6905.06C3089.53 6884.63 3125.97 6873.25 3200.18 6860.8L3204.01 6861.71C1950.48 6513.78 1030.41 5364.34 1030.41 4000C1030.41 2359.94 2359.94 1030.4 4000 1030.4C5640.07 1030.4 6969.6 2359.94 6969.6 4000C6969.6 5363.6 6050.52 6512.54 4798.03 6861.14L4799.47 6860.8C4873.67 6873.25 4910.11 6884.63 4958.94 6905.06C5036.04 6934.83 5066.55 6954.51 5101.87 6994.13C5119.98 7031.89 5121.47 7052.66 5110.94 7088C5104.68 7103.29 5093.53 7114.78 5072.54 7125.78C5063.14 7145.47 5059.4 7151.4 5028.27 7177.6C5028.71 7222.39 5024.81 7245.93 5008.54 7284.26C4997.13 7301.69 4985.2 7313.41 4967.88 7322.38C6402.19 6897.1 7449.37 5559.18 7449.37 3974.51C7449.37 2047.58 5901.01 485.505 3991.03 485.505ZM4754.92 7378.11C4781.38 7372.09 4807.74 7365.76 4833.97 7359.13C4808.07 7360.68 4787.01 7355.01 4770.67 7341.86L4754.92 7378.11ZM3440.71 7215.46C3393.19 7214.42 3369.29 7218.02 3331.91 7232.53C3298.55 7254.63 3280.78 7293.38 3267.38 7333.86L3268.98 7346.05C3269.38 7363.81 3380.42 7373.25 3399.11 7368C3424.29 7345.93 3433.94 7320.96 3442.31 7262.4L3440.71 7215.46ZM4667.74 7232.53C4630.36 7218.02 4606.46 7214.42 4558.94 7215.46L4557.34 7262.4C4565.7 7320.96 4575.37 7345.93 4600.54 7368C4619.23 7373.25 4730.27 7363.81 4730.67 7346.05L4732.27 7333.86C4718.87 7293.38 4701.11 7254.63 4667.74 7232.53ZM3239.11 7195.2C3204.62 7161.07 3183.45 7155.17 3143.65 7160C3140.36 7160.25 3137.32 7160.45 3134.48 7160.63C3106.44 7162.4 3097.51 7162.96 3062.58 7210.66C3049.66 7228.33 3045.45 7235.99 3050.85 7255.78C3052.57 7293.06 3065.02 7294.35 3105.29 7298.5L3106.85 7298.66C3114.69 7299.47 3121.8 7300.33 3128.34 7301.12C3168.81 7306 3186.98 7308.19 3215.09 7279.46C3250.21 7238.77 3253.88 7222.07 3239.11 7195.2ZM4856.01 7160C4816.19 7155.17 4795.04 7161.08 4760.54 7195.2C4745.78 7222.07 4749.44 7238.77 4784.55 7279.46C4812.66 7308.19 4830.83 7306 4871.31 7301.12C4877.85 7300.33 4884.97 7299.47 4892.81 7298.66L4894.36 7298.5C4934.63 7294.35 4947.08 7293.06 4948.81 7255.78C4954.21 7235.99 4949.99 7228.33 4937.07 7210.66C4902.14 7162.96 4893.21 7162.4 4865.17 7160.63C4862.32 7160.45 4859.28 7160.25 4856.01 7160ZM3524.77 6931.77C3550.16 6970.72 3591.23 6993.14 3635.86 7017.49C3658.6 7029.9 3682.26 7042.8 3705.25 7058.66C3745.39 7084.35 3787.61 7124.37 3824.54 7159.39L3824.55 7159.4C3829.26 7163.87 3833.88 7168.25 3838.42 7172.52C3865.99 7111.37 3927.5 7068.8 3998.94 7068.8C4070.21 7068.8 4131.58 7111.16 4159.26 7172.07C4162.61 7168.96 4166.02 7165.78 4169.49 7162.56C4207.66 7127.01 4251.73 7085.96 4294.41 7058.66C4317.38 7042.8 4341.05 7029.9 4363.79 7017.49C4408.4 6993.15 4449.44 6970.75 4474.84 6931.83C4320.23 6956.68 4161.63 6969.6 4000 6969.6C3838.25 6969.6 3679.51 6956.66 3524.77 6931.77ZM3203.38 6893.33C3168.56 6899.18 3156.3 6908.61 3142.58 6932.26C3151.31 6975.55 3154.42 6991.92 3155.38 7022.93C3143.22 7044.81 3132.7 7050.09 3100.45 7033.6C3088.46 7015.44 3082.06 7003.55 3075.82 6957.75L3067.91 6954.13C3051.14 6951.14 3025.01 6969.9 2948.98 7027.2C2938.5 7041.98 2937.79 7050.13 2942.58 7064.53C2978.57 7119.23 2996.8 7136.67 3024.18 7138.66C3037.94 7140.45 3056.98 7136.04 3071.65 7125.78C3081.75 7101 3095.3 7080.83 3129.25 7067.73C3142.26 7062.71 3207.25 7100.91 3210.85 7118.93C3235.17 7123.84 3244.48 7117.96 3261.76 7107.04C3265.06 7104.95 3268.66 7102.69 3272.71 7100.26C3308.9 7052.66 3315.87 7025.42 3291.38 6950.4C3265.04 6921.05 3247.12 6908.97 3203.38 6893.33ZM4796.27 6893.33C4752.53 6908.97 4734.6 6921.05 4708.27 6950.4C4683.77 7025.42 4690.75 7052.66 4726.94 7100.26C4730.98 7102.69 4734.58 7104.95 4737.88 7107.04C4755.18 7117.96 4764.48 7123.84 4788.81 7118.93C4792.4 7100.91 4857.38 7062.71 4870.41 7067.73C4904.35 7080.83 4917.9 7101 4928.01 7125.78C4942.67 7136.04 4961.71 7140.45 4975.47 7138.66C5002.84 7136.67 5021.07 7119.23 5057.07 7064.53C5061.85 7050.13 5061.15 7041.98 5050.67 7027.2C4974.64 6969.9 4948.51 6951.14 4931.74 6954.13L4923.83 6957.75C4917.59 7003.55 4911.19 7015.44 4899.21 7033.6C4866.94 7050.09 4856.43 7044.81 4844.27 7022.93C4845.23 6991.92 4848.33 6975.55 4857.07 6932.26C4843.35 6908.61 4831.09 6899.18 4796.27 6893.33ZM2715.16 6757.58C2730.07 6765.17 2741.07 6773.62 2748.13 6782.9C2755.72 6792.01 2759.65 6801.88 2759.91 6812.5C2760.71 6822.94 2758.19 6833.9 2752.35 6845.34L2656.93 7032.64C2648.44 7049.29 2638.6 7060.87 2627.41 7067.41C2616.75 7073.77 2604.63 7076.12 2591.06 7074.44C2578.02 7072.61 2563.69 7067.71 2548.08 7059.75L2444.03 7006.74L2600.69 6699.25L2715.16 6757.58ZM5491.88 7028.64L5419.58 7065.48L5306.64 6843.85L5253.06 6871.15L5232.38 6830.57L5241.47 6825.28C5254.29 6817 5262.92 6807.36 5267.37 6796.36C5271.81 6785.35 5273.27 6771.07 5271.75 6753.5L5335.22 6721.16L5491.88 7028.64ZM2538.29 7008.23L2554.93 7016.73C2559.44 7019.02 2563.88 7019.32 2568.24 7017.6C2572.62 7015.89 2576.92 7010.88 2581.16 7002.56L2676.06 6816.3C2680.31 6807.98 2681.83 6801.55 2680.65 6797.01C2679.64 6792.13 2676.88 6788.53 2672.37 6786.24L2655.72 6777.76L2538.29 7008.23ZM5607.81 6564.67C5624.17 6562.14 5639.5 6564.88 5653.78 6572.88C5667.85 6580.56 5680.82 6593.78 5692.69 6612.53L5786.38 6760.54C5801.58 6784.55 5805.09 6807.21 5796.92 6828.5C5789.08 6849.59 5772.33 6868.25 5746.66 6884.5C5719.37 6901.78 5694.94 6909.41 5673.39 6907.38C5651.84 6905.36 5633.36 6892.18 5617.95 6867.84L5601.71 6842.18L5669.8 6799.09L5691.04 6832.64C5695.83 6840.2 5700.57 6844.8 5705.29 6846.42C5709.8 6847.71 5714.67 6846.7 5719.94 6843.37C5725.2 6840.03 5728.11 6835.89 5728.66 6830.93C5729.33 6825.45 5727.38 6819.08 5722.79 6811.85L5679.7 6743.75C5679.46 6753.58 5675.85 6762.78 5668.84 6771.37C5662.16 6779.74 5654.38 6786.74 5645.5 6792.36C5634.64 6799.23 5623.69 6803.39 5612.64 6804.86C5601.38 6806 5590.16 6803.2 5578.98 6796.45C5567.81 6789.71 5556.8 6777.78 5545.97 6760.68L5515.68 6712.82C5505.68 6697.03 5500.98 6681.59 5501.55 6666.48C5501.92 6651.05 5506.91 6636.37 5516.53 6622.45C5525.94 6608.2 5539.36 6595.56 5556.79 6584.52C5574.55 6573.28 5591.55 6566.67 5607.81 6564.67ZM2444.16 6593.83L2413.87 6641.68L2369.95 6613.9L2215.67 6857.62L2147.59 6814.53L2301.87 6570.79L2258.44 6543.32L2288.74 6495.45L2444.16 6593.83ZM4000.53 1160.13C2448.81 1160.13 1190.35 2448.28 1190.35 4000C1190.35 5551.72 2448.27 6809.64 4000 6809.64C5551.73 6809.64 6809.65 5551.72 6809.65 4000C6809.65 2448.28 5552.25 1160.13 4000.53 1160.13ZM5596.37 6623.04C5590.79 6621.5 5585.53 6622.3 5580.61 6625.43C5575.67 6628.54 5572.61 6632.8 5571.39 6638.16C5570.18 6643.54 5572.08 6650.16 5577.07 6658.07L5619.55 6725.16C5624.14 6732.4 5629.29 6735.82 5635.03 6735.41C5640.55 6734.68 5645.22 6733.33 5649.05 6731.37C5653.32 6728.66 5656.21 6725.23 5657.71 6721.04C5659.34 6716.33 5659.27 6712.22 5657.52 6708.72L5611.61 6636.2C5606.82 6628.64 5601.75 6624.25 5596.37 6623.04ZM5871.72 6373.74C5887.78 6369.69 5903.29 6371.01 5918.25 6377.64C5932.99 6383.98 5947.12 6395.94 5960.69 6413.49L6067.73 6552.16C6085.09 6574.65 6090.69 6596.88 6084.54 6618.85C6078.69 6640.57 6063.75 6660.71 6039.72 6679.27C6014.14 6699.02 5990.52 6708.88 5968.88 6708.87C5947.24 6708.86 5927.61 6697.45 5910.01 6674.65L5891.45 6650.61L5955.24 6601.37L5979.5 6632.81C5984.98 6639.89 5990.13 6644.03 5994.97 6645.2C5999.58 6646.08 6004.35 6644.61 6009.27 6640.8C6014.21 6637 6016.72 6632.6 6016.8 6627.61C6016.95 6622.09 6014.43 6615.93 6009.19 6609.15L5959.95 6545.36C5960.63 6555.17 5957.88 6564.67 5951.71 6573.87C5945.83 6582.83 5938.73 6590.5 5930.42 6596.94C5920.25 6604.79 5909.73 6609.95 5898.86 6612.44C5887.76 6614.61 5876.32 6612.87 5864.57 6607.19C5852.81 6601.51 5840.75 6590.67 5828.38 6574.64L5793.76 6529.81C5782.35 6515.02 5776.23 6500.07 5775.39 6484.98C5774.32 6469.58 5777.92 6454.5 5786.21 6439.75C5794.25 6424.68 5806.44 6410.86 5822.77 6398.25C5839.41 6385.4 5855.73 6377.23 5871.72 6373.74ZM2015.38 6343.07C2029.12 6335.47 2043.75 6333.74 2059.25 6337.84C2075.01 6341.64 2093.21 6351.51 2113.86 6367.44C2140.04 6387.67 2155.64 6408.55 2160.63 6430.12C2165.87 6451.37 2160.04 6472.94 2143.15 6494.81L2117.1 6528.55C2106.62 6520.47 2095.99 6512.25 2085.21 6503.93C2074.73 6495.85 2064.1 6487.63 2053.31 6479.31L2064.38 6464.98C2074.37 6452.04 2080.34 6442.39 2082.3 6436.03C2084.26 6429.67 2081.85 6423.88 2075.06 6418.64C2069.22 6414.13 2063.66 6413.04 2058.41 6415.38C2053.4 6417.42 2047.56 6422.74 2040.91 6431.37C2033.29 6441.23 2029.31 6450.2 2028.96 6458.3C2029.16 6466.32 2031.28 6474.1 2035.3 6481.63C2039.56 6488.85 2044.13 6496.32 2049 6504.01C2058.52 6519.72 2065.29 6533.55 2069.33 6545.52C2073.92 6557.43 2074.53 6569.69 2071.16 6582.34C2067.79 6594.98 2059.2 6610.24 2045.41 6628.11C2029.71 6648.46 2013.84 6662.01 1997.77 6668.8C1981.95 6675.27 1965.56 6676.14 1948.57 6671.38C1932.13 6666.56 1915.28 6657.49 1898.03 6644.17C1880.77 6630.85 1867.77 6617.12 1859.01 6602.98C1850.24 6588.84 1847.15 6573.43 1849.72 6556.72C1852.6 6540.25 1862.48 6521.07 1879.37 6499.2L1892.21 6482.56C1903.31 6491.12 1914.4 6499.69 1925.49 6508.25C1936.9 6517.05 1948.14 6525.74 1959.23 6534.3L1942.1 6556.49C1934.5 6566.34 1929.28 6574.36 1926.48 6580.56C1923.89 6586.44 1922.98 6591.14 1923.7 6594.65C1924.75 6598.41 1926.96 6601.59 1930.35 6604.21C1935.58 6608.25 1940.98 6609.22 1946.54 6607.12C1952.64 6604.95 1960.46 6597.69 1969.97 6585.37C1978.29 6574.59 1982.67 6565.42 1983.08 6557.87C1984.04 6550.26 1982.13 6541.9 1977.36 6532.8C1972.58 6523.7 1965.93 6511.93 1957.41 6497.48C1950.36 6483.68 1946.06 6470.77 1944.51 6458.76C1942.97 6446.75 1944.59 6434.47 1949.36 6421.92C1954.42 6409.61 1962.32 6396.52 1973.03 6382.65C1987.53 6363.86 2001.65 6350.66 2015.38 6343.07ZM4821.74 1968.91C5174.36 1958.21 5322.76 2028.74 5400.32 2209.64C5451.63 2259.87 5482.68 2288.99 5518.67 2322.75C5534.23 2337.34 5550.71 2352.81 5570.15 2371.21C5617.6 2304.62 5648.33 2292.46 5706.23 2298.56C5707.1 2378.14 5689.62 2406.82 5633.44 2437.35L5760.55 2588.63C5833.97 2485.37 5882.83 2456.98 5981.55 2463.38C5970.57 2569.65 5933.71 2627.53 5825.95 2673.22C5888.74 2761.71 5921.63 2811.73 5975.21 2902.02C6078.92 2797.61 6153.78 2771.93 6289.56 2781.65C6202.04 2921.3 6135.78 2966.99 6014.77 2963.83C6014.88 2964.07 6014.98 2964.21 6015.15 2964.46C6016.93 2967.02 6027.19 2981.79 6151.37 3256.06C6290.65 3176.47 6374.58 3169.19 6513.72 3204.55C6461.3 3331.63 6388.31 3369.74 6188.3 3352.58C6225.34 3470.77 6242.52 3536.62 6264.77 3654.04C6406.19 3589.95 6507.55 3595.65 6635.55 3668.67C6573.6 3756.02 6497.83 3779.51 6284.81 3750C6297.83 3846.31 6301.35 3902.64 6306.52 3985.27C6307.01 3992.99 6307.5 4000.94 6308.02 4009.17C6450.73 3949.69 6539.6 3964.43 6670.89 4044.42C6564.62 4145.22 6478.8 4154.08 6308.02 4100.8C6302.84 4260.34 6292.43 4349.03 6262.67 4506.36C6432.37 4486.91 6512.9 4510.9 6619.73 4624.01C6545.96 4697.59 6424.68 4706.85 6250 4582.26C6194.98 4779.77 6160.54 4883.37 6089.14 5048.55C6277.53 5048.14 6359.4 5079.75 6428.28 5190.06C6287.46 5257.83 6189.88 5236.69 6058.02 5126.62C5988.94 5257.39 5951.12 5328.31 5878.7 5450.31C6057.33 5483.55 6147.68 5549.53 6199.89 5711.65C6016.35 5734.96 5923.26 5659.03 5821.74 5537.07L5690.4 5725.75L5591.9 5675.54C5646.57 5738.33 5682.37 5789.8 5720.37 5849.34C5738.85 5901.43 5735.31 5929.04 5720.37 5977.3C5564.44 6155.66 5452.57 6244.66 5214.58 6385.02C4989.59 6505.92 4859.7 6551.19 4624.91 6612.2C4379.61 6667.78 4242.95 6677.69 3999.91 6671.06C3756.87 6677.69 3620.21 6667.55 3374.91 6611.97C3140.13 6550.94 3010.24 6505.68 2785.25 6384.79C2547.25 6244.42 2435.38 6155.42 2279.45 5977.05C2264.51 5928.8 2260.97 5901.18 2279.45 5849.1C2320.05 5785.49 2358.14 5731.08 2419.43 5662.24L2294.84 5725.75L2163.51 5537.07C2061.99 5659.03 1968.89 5734.96 1785.35 5711.65C1837.56 5549.53 1927.91 5483.55 2106.55 5450.31C2034.12 5328.31 1996.31 5257.39 1927.22 5126.62C1795.36 5236.69 1697.79 5257.83 1556.97 5190.06C1625.84 5079.75 1707.71 5048.14 1896.11 5048.55C1824.7 4883.37 1790.26 4779.77 1735.24 4582.26C1560.56 4706.85 1439.28 4697.59 1365.52 4624.01C1472.35 4510.9 1552.87 4486.91 1722.58 4506.36C1692.81 4349.03 1682.4 4260.34 1677.23 4100.8C1506.43 4154.08 1420.62 4145.22 1314.36 4044.42C1445.64 3964.43 1534.51 3949.69 1677.23 4009.17C1677.74 4000.93 1678.24 3992.98 1678.72 3985.26C1683.88 3902.64 1687.42 3846.3 1700.43 3750C1487.41 3779.51 1411.65 3756.02 1349.69 3668.67C1477.69 3595.65 1579.06 3589.95 1720.47 3654.04C1742.72 3536.62 1759.9 3470.77 1796.95 3352.58C1596.93 3369.74 1523.94 3331.63 1471.52 3204.55C1610.66 3169.19 1694.6 3176.47 1833.87 3256.06C1958.05 2981.8 1968.31 2967.03 1970.09 2964.46C1970.26 2964.21 1970.36 2964.07 1970.48 2963.83C1849.47 2966.99 1783.2 2921.3 1695.68 2781.65C1831.47 2771.93 1906.32 2797.61 2010.03 2902.02C2063.61 2811.73 2096.5 2761.71 2159.29 2673.22C2051.54 2627.53 2014.68 2569.65 2003.7 2463.38C2102.41 2456.98 2151.28 2485.37 2224.7 2588.63L2351.8 2437.35C2295.62 2406.82 2278.15 2378.14 2279.02 2298.56C2336.92 2292.46 2367.64 2304.62 2415.09 2371.21C2434.53 2352.81 2451.01 2337.35 2466.57 2322.76C2502.56 2289 2533.61 2259.87 2584.92 2209.64C2662.49 2028.74 2810.89 1958.21 3163.51 1968.91C3067.3 2239 2865.22 2321.75 2609.71 2298.56L2468.36 2430.31C2535.21 2479.97 2564.45 2510.65 2554.34 2584.29C2472.48 2602.38 2434.35 2579.19 2399.8 2500.8L2276.38 2640.14C2384.28 2724.18 2423.53 2775.69 2406.66 2839.12C2312.25 2845.09 2266.03 2802.66 2216.78 2725.26C2158.71 2800.29 2128.64 2845.62 2079.13 2931.84C2199.49 2965.51 2274.27 3015.34 2283.23 3100.46C2186.47 3143.62 2128.43 3106.29 2036.4 3011.54C1980.67 3118.59 1954.73 3180.43 1916.67 3293.48C2061.93 3301.09 2134.64 3332.52 2229.44 3430.66C2089.67 3495.92 2010.81 3479.46 1887.14 3388.91C1858.06 3494.51 1845.89 3554.94 1829.64 3664.33C1998.52 3625.93 2078.25 3634.91 2166.68 3714.22C2042.17 3812.42 1961.38 3816.22 1821.21 3759.76C1815.54 3859.9 1815.15 3916.08 1818.57 4016.21C1963.32 3948.81 2054.64 3949.86 2186.72 4050.92C2071 4150.46 1984.06 4151.97 1827.01 4108.39C1841.27 4243.82 1855.61 4327.55 1890.83 4467.86C2034.58 4375.69 2157.71 4376.23 2283.23 4461.9C2185.69 4544.28 2094.65 4555.15 1913.51 4547.02C1918.6 4562.62 1923.48 4577.65 1928.19 4592.19C1975.97 4739.41 2007.44 4836.35 2079.65 4970.47C2189.7 4839.43 2277.24 4815.36 2444.1 4838.17C2361.32 5012.71 2261.21 5025.41 2113.01 5044.19L2112.88 5044.21C2168.87 5162.96 2204.93 5226.27 2276.38 5333.74C2379.47 5196.29 2458.87 5156.99 2633.44 5168.37C2617.91 5283.2 2513.23 5364.99 2328.6 5416.69C2358.35 5461.85 2398.55 5516.01 2468.81 5608.93C2537.04 5537.81 2630.21 5449.6 2768.37 5325.89C2826.87 5267.74 2859.68 5235.22 2908.14 5238.59L3063.21 5244.01C3127.41 5265.96 3140.4 5296.11 3137.58 5358.95C3112.91 5412.83 3092.37 5437.15 3061.9 5473.24L3061.9 5473.25C3061.47 5473.76 3061.04 5474.26 3060.61 5474.77C3060.24 5475.2 3059.87 5475.64 3059.51 5476.07C3036.14 5508.22 3047.61 5526.54 3092.21 5568.24C3200.63 5647.11 3270.57 5672.53 3394.43 5707.05C3630.98 5754.42 3781.57 5772.59 3998.51 5765.72C4215.47 5772.6 4368.83 5754.66 4605.39 5707.28C4729.27 5672.77 4799.2 5647.35 4907.61 5568.48C4952.21 5526.78 4963.69 5508.47 4940.32 5476.31L4937.94 5473.49C4907.45 5437.39 4886.92 5413.07 4862.25 5359.2C4861.58 5344.32 4861.8 5331.28 4863.37 5319.74C4439.11 5142.06 4267.26 5074.48 4199.69 5083.95C3849.37 5280.88 3574.21 5443.82 3479.79 5483.43C3395.09 5504.95 3336.41 5486.17 3294.62 5440.25C3232.82 5310.38 3217.06 5269.2 3174.98 5181.74L3582.26 4904.49C3424.11 4817.45 3355.04 4761.1 3283.17 4635.57C3145.69 4560.78 3070.31 4514.31 2937.26 4423.35C2850.97 4372.36 2802.22 4352.27 2702.67 4350.53C2664.63 4229.03 2625.38 4168.97 2545.07 4079.52C2672.77 4111.35 2750.44 4119.88 2885.25 4127.38C2915.85 4194.36 2967.19 4240.62 3039.21 4283.42C3164 4337.93 3218.49 4354.69 3373.16 4410.87C3653.09 4455.57 3792.54 4503.36 4012.95 4642.86L4875.37 4151.83L5703.47 3976.53L5077.2 4570.04L4399.95 4985.64C4629.09 5166.77 4811.23 5262.91 4871.06 5292.41C4881.22 5271.07 4901.06 5256.4 4936.62 5244.25L5091.69 5238.84C5140.15 5235.45 5172.96 5267.98 5231.45 5326.12C5364.11 5444.91 5455.29 5530.96 5522.73 5600.58C5589.12 5512.74 5627.8 5460.48 5656.65 5416.69C5472.02 5364.99 5367.33 5283.2 5351.8 5168.37C5526.38 5156.99 5605.78 5196.29 5708.86 5333.74C5780.32 5226.27 5816.38 5162.96 5872.36 5044.21L5872.23 5044.19C5724.03 5025.41 5623.93 5012.71 5541.14 4838.17C5708.01 4815.36 5795.54 4839.43 5905.59 4970.47C5977.81 4836.35 6009.27 4739.41 6057.05 4592.19C6061.76 4577.65 6066.65 4562.62 6071.73 4547.02C5890.59 4555.15 5799.55 4544.28 5702 4461.9C5827.53 4376.23 5950.66 4375.69 6094.41 4467.86C6129.63 4327.55 6143.98 4243.82 6158.23 4108.39C6001.18 4151.97 5914.24 4150.46 5798.53 4050.92C5930.61 3949.86 6021.92 3948.81 6166.67 4016.21C6170.1 3916.08 6169.7 3859.9 6164.03 3759.76C6023.86 3816.22 5943.07 3812.42 5818.57 3714.22C5907 3634.91 5986.72 3625.93 6155.59 3664.33C6139.35 3554.94 6127.18 3494.51 6098.1 3388.91C5974.43 3479.46 5895.57 3495.92 5755.81 3430.66C5850.6 3332.52 5923.31 3301.09 6068.57 3293.48C6030.51 3180.43 6004.58 3118.59 5948.84 3011.54C5856.81 3106.29 5798.78 3143.62 5702 3100.46C5710.98 3015.34 5785.75 2965.51 5906.12 2931.84C5856.6 2845.62 5826.53 2800.29 5768.46 2725.26C5719.22 2802.66 5673 2845.09 5578.59 2839.12C5561.72 2775.69 5600.97 2724.18 5708.86 2640.14L5585.45 2500.8C5550.89 2579.19 5512.76 2602.38 5430.91 2584.29C5420.79 2510.65 5450.03 2479.97 5516.89 2430.31L5375.53 2298.56C5120.02 2321.75 4917.95 2239 4821.74 1968.91ZM3047.91 5312.87C3021.65 5305.52 2939.62 5295.61 2902.33 5312.87C2865.05 5330.13 2778.92 5418.6 2778.92 5418.6C2576.34 5620.61 2553.54 5645.69 2433.28 5778L2433.27 5778.01C2414.45 5798.72 2393.23 5822.05 2368.58 5849.1C2344.57 5907.94 2353.09 5935.21 2396.01 5977.05C2533.61 6121.09 2617.92 6187.02 2785.25 6288.28C3001.91 6408.05 3131.54 6457.75 3374.91 6520.33C3606.41 6569.46 3742.32 6582.79 3999.91 6591.36C4257.5 6582.79 4393.42 6569.69 4624.91 6520.57C4868.28 6457.98 4997.92 6408.29 5214.58 6288.51C5381.91 6187.26 5466.21 6121.32 5603.81 5977.3C5646.74 5935.44 5655.25 5908.18 5631.24 5849.34C5606.59 5822.29 5585.37 5798.96 5566.56 5778.25L5566.34 5778.01L5566.34 5778.01C5446.25 5645.91 5423.36 5620.73 5220.9 5418.84C5220.72 5418.65 5134.73 5330.36 5097.49 5313.11C5060.2 5295.85 4978.17 5305.76 4951.91 5313.11C4947.4 5331.73 4948.89 5341.77 4956.13 5359.2C5014.62 5395.53 5033.03 5415.64 5058.98 5469.26C5065.78 5542.76 5048.85 5584.25 4970.9 5640.05C4834.79 5708.96 4754.52 5739.25 4605.39 5782.11C4378.96 5828.76 4229.02 5847.65 4000.51 5861.52C3771.99 5847.64 3620.87 5828.52 3394.43 5781.87C3245.3 5739.02 3165.03 5708.72 3028.93 5639.82C2950.97 5584.02 2934.05 5542.52 2940.84 5469.02C2966.79 5415.39 2985.2 5395.28 3043.69 5358.95C3050.93 5341.53 3052.42 5331.49 3047.91 5312.87ZM5865.76 6432.92C5860.07 6431.9 5854.91 6433.18 5850.29 6436.76C5845.67 6440.32 5843 6444.84 5842.3 6450.29C5841.59 6455.75 5844.1 6462.19 5849.81 6469.58L5898.33 6532.45C5903.57 6539.22 5909.02 6542.14 5914.69 6541.2C5920.12 6539.97 5924.65 6538.19 5928.28 6535.88C5932.28 6532.79 5934.84 6529.09 5935.95 6524.8C5937.14 6519.95 5936.69 6515.87 5934.62 6512.55L5882.16 6444.61C5876.69 6437.51 5871.23 6433.62 5865.76 6432.92ZM1933.45 6226.14L1894.83 6267.57L1837.18 6213.81L1783.02 6271.88L1833.41 6318.88L1790.01 6365.43L1739.61 6318.43L1678.29 6384.2L1735.94 6437.96L1698.1 6478.53L1578.53 6367.03L1813.88 6114.64L1933.45 6226.14ZM6211.88 6154.45L6124.76 6235.69L6174.54 6289.07C6173.08 6283.51 6173.49 6275.95 6175.75 6266.39C6178.01 6256.83 6185.54 6246.08 6198.35 6234.13C6217.15 6216.61 6233.84 6207.96 6248.42 6208.19C6263.03 6207.88 6278.44 6216.41 6294.63 6233.77L6356.36 6299.97C6371.75 6316.48 6381.13 6331.96 6384.47 6346.39C6387.57 6360.54 6385.41 6374.79 6378.03 6389.13C6370.37 6403.19 6358.01 6418.18 6340.93 6434.11C6321.85 6451.89 6305.17 6464.26 6290.89 6471.2C6276.88 6477.87 6262.94 6478.62 6249.07 6473.46C6235.49 6468.02 6220.21 6456.2 6203.22 6437.97L6179.72 6412.78L6239.08 6357.43L6258.19 6377.93C6268.82 6389.31 6277.26 6395.81 6283.55 6397.4C6289.56 6398.71 6295.27 6396.84 6300.68 6391.81C6305.81 6387.03 6307.64 6381.58 6306.2 6375.47C6304.51 6369.08 6298.47 6360.33 6288.12 6349.23L6247.1 6305.24C6243.39 6301.25 6239.5 6297.95 6235.46 6295.33C6231.45 6292.16 6227.37 6290.64 6223.23 6290.77C6219.11 6290.36 6214.92 6292.14 6210.65 6296.12C6206.1 6300.36 6203.86 6305.38 6203.93 6311.17C6204.28 6316.69 6206.84 6322.28 6211.6 6327.96L6152.67 6382.91L6027.23 6248.39L6172.85 6112.6L6211.88 6154.45ZM2704.46 5705.15C2733.31 5704.46 2763.57 5710.33 2794.36 5725.87C2853.19 5755.54 2862.21 5799.95 2842.15 5841.99C2831.55 5864.2 2814.26 5878.93 2791.87 5885.23C2801.3 5891.74 2811.88 5898.25 2824.29 5904.51C2840.38 5912.62 2856.44 5918.38 2873.4 5921.07L2905.65 5853.51L2876.7 5838.91L2901.95 5785.99C2921.62 5797.11 2939.04 5807.46 2955.45 5817.21C3005.8 5847.12 3046.69 5871.41 3113.91 5895.09V5895.06L3291.52 5949.41L3291.49 5949.48C3372.41 5969.53 3431.6 5979.38 3501.87 5991.07C3529.36 5995.65 3558.56 6000.5 3591.4 6006.37L3591.42 6006.29L3598.19 6007.58C3598.22 6007.58 3598.26 6007.59 3598.29 6007.59L3746.97 6035.81L3746.96 6035.9C3831 6045.07 3890.52 6048.13 3960.17 6051.69C3990.77 6053.26 4023.31 6054.93 4060.76 6057.26L4057.49 6116.11L4010.47 6113.34L3995.58 6381.3L3924.03 6377.1L3931.65 6239.97L3856.01 6235.53L3855.37 6247.08C3853.64 6278.08 3840.08 6291.52 3817.07 6290.16C3783.34 6288.19 3743.53 6238.93 3745.45 6204.25C3746.59 6183.76 3756.04 6170.62 3787.22 6172.45L3934.92 6181.12L3938.92 6109.14L3735.8 6093.76L3735.83 6093.62L3690.26 6084.98L3642.88 6348.92L3572.39 6335.54L3619.77 6071.6L3587.88 6065.56L3581.01 6064.25L3541.56 6056.77L3494.19 6320.7L3424.21 6307.43L3444.28 6195.65L3352.16 6178.17L3350.76 6185.93C3345.55 6214.91 3329.73 6224.76 3308.08 6220.65C3274.35 6214.25 3240.74 6160.79 3246.5 6128.69C3247.24 6124.62 3248.48 6120.76 3250.44 6117.36L3211.43 6111.34C3178.2 6105.04 3158.35 6114.12 3153.52 6141.02C3148.87 6166.9 3162.81 6193.63 3191.2 6232.72L3131.91 6264.3C3095.18 6210.77 3075.89 6167.51 3084.53 6119.38C3095.4 6058.83 3140.27 6037.91 3212.26 6051.56L3299.01 6068.2L3308.99 6012.65C3289.05 6009.89 3276.95 6006.91 3257.91 6000.53L3104.53 5955.35L2990.12 6195.06L2925.78 6162.61L3040.77 5921.65L2969.53 5885.73L2854.53 6126.69L2790.65 6094.46L2847.93 5974.46C2836.23 5971.49 2824.52 5967.35 2813.49 5961.78C2807.97 5959 2802.23 5955.52 2796.93 5952.25V5952.27C2795.37 5956.75 2793.8 5961.23 2791.55 5965.95C2767.2 6016.98 2718.97 6029.59 2664.74 6002.24C2603.62 5971.41 2577.57 5917.25 2586.98 5794.78H2648.57C2640.97 5881.21 2648.85 5926.81 2682.87 5943.97C2704.92 5955.09 2723.67 5950.47 2734.03 5928.75C2740.35 5915.51 2740.01 5900.69 2734.85 5885.19C2719.73 5882.25 2704.11 5876.72 2687.36 5870.03L2701.85 5816.96C2751.66 5835.64 2769.96 5831.97 2778.52 5814.01C2785.97 5798.42 2778.77 5784.83 2760.84 5775.79C2742.46 5766.52 2721.6 5762.44 2698.02 5764.03L2704.46 5705.15ZM4843.75 5763.25C4995.19 5700.9 5142.6 5710.85 5237.47 5756.98L5282.25 5738.54L5303.58 5793.25L5257.01 5812.42L5288.41 5893.03L5217.59 5922.18C5168.66 5942.33 5151.35 5965.9 5162.97 5995.7C5173.43 6022.57 5201.76 6027.34 5239.31 6011.88C5242.64 6010.51 5245.97 6009.15 5249.1 6007.28C5248.53 6005.82 5247.89 6004.53 5247.25 6003.23C5246.61 6001.94 5245.96 6000.64 5245.39 5999.18C5235.3 5973.29 5247.08 5952.56 5272.74 5941.99C5304.58 5928.88 5333.1 5942.65 5343.19 5968.54C5350.23 5986.62 5345.58 6004.41 5330.67 6021.32C5354.16 6046.24 5382.4 6074.86 5416.55 6104.45L5367.32 6150.79C5342.6 6126.95 5318.72 6101.07 5299.71 6077.73C5285.95 6140.07 5248.89 6195.02 5188.25 6223.38C5134.27 6249.01 5085.88 6239.45 5067.42 6197.74C5062.76 6187.18 5061.04 6177.12 5061.89 6166.56C5010.85 6178.5 4972.24 6155.85 4956.63 6115.79C4937.6 6066.94 4961.54 6029.3 5001.47 6012.87C5038.53 5997.61 5074.37 6008.93 5088.27 6044.59C5092.08 6054.37 5093.8 6064.42 5095.31 6074L5048.55 6087.02C5047.98 6082.72 5046.55 6077.64 5044.84 6073.25C5041.03 6063.47 5034 6056.73 5022.59 6061.43C5010.7 6066.32 5006.63 6077.07 5012.72 6092.7C5024.32 6122.5 5053.22 6123.08 5081.17 6112.7C5087.54 6104.98 5096.19 6097.46 5106.06 6091.69C5114.33 6086.01 5122.98 6081.32 5127.45 6080.05L5156.27 6121.47C5155.18 6122.09 5153.81 6122.77 5152.3 6123.52C5148.86 6125.24 5144.74 6127.29 5141.83 6129.68C5127.29 6139.07 5121.77 6150.41 5126.82 6161.94C5132.62 6175.42 5148.31 6177.47 5168.64 6167.39C5203.25 6151.45 5226.99 6116.16 5237.63 6075.51C5180.31 6091.17 5119.28 6081.71 5095.11 6019.67C5071.31 5958.6 5100.28 5909.82 5183.45 5875.58L5201.99 5867.95L5190.95 5839.61L4886.8 5964.84L4886.64 5964.41L4849.73 5979.6L4946.8 6228.77L4880.27 6256.16L4783.2 6006.99C4774.31 6012.38 4764.54 6014.31 4751.42 6016.9C4748.35 6017.51 4745.1 6018.15 4741.64 6018.88L4741.6 6018.8L4725.57 6022.58L4778.44 6285.41L4708.76 6300.22L4696.22 6237.86C4680.24 6252.01 4658.93 6262.98 4632.36 6268.64C4566.18 6282.7 4516.32 6258.37 4504.1 6197.55C4492.18 6138.29 4526.85 6097.6 4594.03 6083.31C4614.59 6078.95 4632.55 6077.28 4647.81 6077.8L4653.59 6135.14C4642.05 6134.91 4629.71 6135.92 4615.67 6138.91C4585.59 6145.3 4570.14 6162.02 4574.69 6184.7C4578.95 6205.82 4597.58 6215.3 4624.66 6209.54C4649.72 6204.22 4671.29 6186.73 4681.39 6164.17L4655.89 6037.38L4461.87 6078.63L4423.3 6086.82L4476.18 6349.66L4405.99 6364.58L4353.11 6101.75L4314.51 6109.96L4302.91 6052.23L4339.5 6044.46C4329.08 6031.62 4319.84 6016.93 4315.71 5996.32C4304.3 5939.62 4343.18 5896.42 4419.89 5880.12C4533.92 5855.88 4637.89 5899.96 4706.54 5966.43L4725.6 5962.38L4760.93 5952.68C4748 5942.13 4735.93 5929.52 4727.93 5909.01C4706.81 5854.78 4749.66 5801.99 4843.75 5763.25ZM3311.05 6145.69C3305.78 6139 3296.89 6135.35 3289 6138.55C3279.38 6142.45 3275.8 6154.62 3279.14 6164.46C3279.55 6165.68 3280 6166.86 3280.48 6168C3285.36 6179.51 3300.06 6187.02 3310.3 6179.86C3310.95 6179.41 3311.58 6178.91 3312.19 6178.37C3318.45 6172.69 3319.49 6163.03 3316.46 6155.12C3315.16 6151.72 3313.41 6148.7 3311.05 6145.69ZM3362.56 6120.21L3454.68 6137.68L3471.59 6043.5L3379.46 6026.03L3362.56 6120.21ZM4635.97 5981.44C4576.55 5939.4 4513.8 5920.88 4446.64 5935.17C4402.02 5944.65 4382.98 5966.96 4389 5996.85C4391.9 6011.28 4399.19 6021.55 4407.18 6030.07L4457.81 6019.3L4635.97 5981.44ZM5164.93 5786.83C5079.92 5764.4 4978.73 5771.74 4878.56 5812.98C4814.88 5839.2 4789.52 5868.91 4801.12 5898.72C4805.69 5910.44 4814.35 5919.91 4824.14 5926.65L4872.14 5906.89L4872.3 5907.31L5164.93 5786.83ZM1416.8 5580.72L1117.8 5753.03L1077.27 5682.71L1376.27 5510.4L1416.8 5580.72ZM6966.18 5599.37L6884.31 5740.89L6835.29 5712.54L6874.76 5644.3L6806.01 5604.54L6771.51 5664.18L6716.42 5632.32L6750.92 5572.67L6673.08 5527.65L6633.6 5595.88L6585.59 5568.12L6667.45 5426.58L6966.18 5599.37ZM1347.99 5461.32L1221.16 5599.11L1049.28 5634.14L1006.13 5559.26L1181.3 5531.1L1304.25 5385.44L1347.99 5461.32ZM6817.85 5178.6C6832.96 5177.45 6852.18 5182.26 6875.5 5193.05L7044.02 5271.02C7062.04 5279.36 7074.46 5289.61 7081.27 5301.77C7088.27 5314.44 7090.79 5328.47 7088.81 5343.86C7086.84 5359.24 7081.6 5376.13 7073.1 5394.49C7064.77 5412.51 7055.12 5427.35 7044.15 5439.01C7033.54 5450.83 7021.3 5458.25 7007.47 5461.28C6993.46 5464.66 6977.45 5462.19 6959.43 5453.86L6913.33 5432.52L6946.42 5360.98L6996.77 5384.27C7003.13 5387.21 7008.31 5388.53 7012.3 5388.24C7016.14 5388.3 7019.23 5387.16 7021.6 5384.82C7024.16 5383.01 7026.42 5379.98 7028.39 5375.73C7030.02 5372.2 7030.79 5368.69 7030.68 5365.21C7030.92 5361.9 7029.87 5358.62 7027.51 5355.38C7024.98 5352.5 7020.54 5349.59 7014.18 5346.64L6823.4 5258.38C6817.39 5255.59 6812.3 5254.1 6808.11 5253.88C6803.76 5254 6800.4 5255.24 6798.03 5257.58C6795.66 5259.91 6793.67 5262.85 6792.04 5266.38C6789.25 5272.39 6788.89 5277.8 6790.96 5282.61C6792.86 5287.79 6797.87 5292.24 6805.99 5296L6866.4 5323.96L6875.23 5304.87L6916.57 5324L6874.64 5414.62L6713.54 5340.08L6739.28 5284.44L6763.26 5291.03C6762.9 5290.87 6762.46 5290.44 6761.91 5289.76C6761.72 5289.25 6761.53 5288.73 6761.34 5288.21C6757 5282.77 6753.96 5274.51 6752.23 5263.41C6750.69 5252.83 6753.59 5239.59 6760.95 5223.7C6766.18 5212.39 6773.2 5202.33 6781.99 5193.54C6790.61 5185.09 6802.56 5180.11 6817.85 5178.6ZM1227.76 5223.33L1179.49 5253.92L1194.15 5285.74L1248.28 5267.87L1284.93 5347.42L948.537 5441.97L898.938 5334.32L1189.88 5141.12L1227.76 5223.33ZM3839.21 5007.49C3646.25 5140.14 3528.1 5207.42 3322.18 5334.14L3376.8 5410.09C3419.62 5423.48 3443.08 5421.19 3483.43 5400.72L4087.85 5063.15C3993.55 5046.01 3933.89 5041.1 3839.21 5007.49ZM985.583 5361.91L1157.85 5301.82L1143.43 5270.54L985.583 5361.91ZM3285.77 5171.34C3267.16 5184.76 3247.8 5202.03 3248.32 5220.23C3248.84 5238.43 3267.7 5258.82 3285.77 5257.68L3736.75 4974.72L3660.8 4943.51L3285.77 5171.34ZM7211.77 5034.82L7156.9 5188.83L7103.54 5169.81L7130 5095.56L7055.19 5068.91L7032.07 5133.81L6972.11 5112.45L6995.23 5047.54L6910.53 5017.36L6884.08 5091.62L6831.82 5073L6886.69 4918.99L7211.77 5034.82ZM1155.92 5052.17L830.66 5167.48L803.93 5092.07L1076.9 4995.31L1053.29 4928.71L1105.58 4910.17L1155.92 5052.17ZM3448.58 4528.42C3395.44 4530.21 3375.17 4558.44 3376.8 4610.6C3456.56 4719.98 3523.51 4762.24 3620.75 4820.75C3852.61 4943.69 3980.28 4973.87 4264.71 5002.8C4146.02 4856.5 4066.98 4780.57 3870.42 4672.5C3718.38 4602.24 3632.45 4564.32 3448.58 4528.42ZM5002.3 4390.06C4963.33 4367.08 4947.38 4360.65 4912.3 4367.17L4194.49 4804.63C4239.63 4864.53 4264.21 4890.54 4331.81 4931.02L5002.3 4519.06V4390.06ZM1063.01 4763.87L922.693 4799.65L744.635 4911.92L724.721 4833.84L803.12 4789.15L827.43 4778.13L800.806 4780.1L710.299 4777.26L691.984 4705.4L907.174 4719.84L1042.97 4685.22L1063.01 4763.87ZM7292.71 4747.39L7272.82 4824.87L6992.29 4752.88L6974.73 4821.31L6921 4807.53L6958.44 4661.61L7292.71 4747.39ZM4816.08 4584.6L4473.82 4780.69L4464.97 4729.2L4816.08 4515.41V4584.6ZM4075.89 4691.23L4135.19 4743.24L4864.97 4317.76V4244.94L4075.89 4691.23ZM992.945 4429.62L938.215 4446.07L943.751 4480.66L1000.69 4478.06L1014.52 4564.54L665.084 4564.84L646.375 4447.79L978.652 4340.25L992.945 4429.62ZM7349.53 4444.54L7336.77 4523.51L7050.85 4477.32L7039.59 4547.07L6984.83 4538.23L7008.85 4389.5L7349.53 4444.54ZM5139.76 2818.02C5158.84 2821.05 5178.72 2822.56 5198.09 2824.04C5238.04 2827.08 5275.77 2829.96 5299.56 2845.66C5320.33 2860.64 5329.44 2876.17 5329.1 2909.1L5126.05 3958.78C5109.9 3997.97 5090.33 4020.55 5042.19 4021.67L5038.49 4021.41L5032.11 4020.95L5026.52 4020.53L5025.13 4020.44C4877.52 4009.7 4798.89 4003.98 4691.45 4017.88C4360.47 4064.26 4157.7 4203.85 4004.22 4508V4508.01L4004.21 4508.02V4508C3850.73 4203.85 3647.96 4064.26 3316.98 4017.88C3209.54 4003.98 3130.92 4009.7 2983.3 4020.44L2981.91 4020.53L2976.32 4020.95L2971.2 4021.31L2966.24 4021.67C2918.11 4020.55 2898.53 3997.97 2882.38 3958.78L2679.32 2909.1C2678.99 2876.17 2688.09 2860.64 2708.87 2845.66C2732.67 2829.96 2770.38 2827.08 2810.34 2824.04C2829.7 2822.56 2849.59 2821.05 2868.68 2818.02L2847.58 2639.09C2886.21 2640.8 2907.96 2646.57 2943.04 2664.58C3012.45 2719.94 3064.42 2744.1 3162.45 2784.4C3212.13 2800.09 3269.25 2804.03 3339.18 2808.86C3361.69 2810.41 3385.53 2812.06 3410.86 2814.22C3455.04 2816.97 3495.19 2823.67 3529.01 2829.31C3550.6 2832.92 3569.61 2836.09 3585.44 2837.54C3813.88 2880.28 3920.06 2918.43 4004.22 3054.4C4088.38 2918.43 4194.55 2880.28 4422.99 2837.54C4438.82 2836.09 4457.84 2832.92 4479.43 2829.31C4513.24 2823.67 4553.38 2816.97 4597.57 2814.22C4622.9 2812.06 4646.74 2810.41 4669.25 2808.86C4739.17 2804.03 4796.3 2800.09 4845.99 2784.4C4944 2744.1 4995.98 2719.94 5065.39 2664.58C5100.47 2646.57 5122.22 2640.8 5160.86 2639.09L5139.76 2818.02ZM722.364 4497.73L904.444 4486.36L899.004 4452.33L722.364 4497.73ZM5006.98 4179.39C4957.03 4217.68 4942.29 4240.67 4941.96 4287.58C4961.73 4321.69 4997.26 4324.99 5077.2 4319.32L5079.8 4469.12L5491.25 4077.96L5006.98 4179.39ZM5026.89 3774.98C5006.42 3832.42 4976.38 3859.07 4919.3 3869.32C4739.34 3874.58 4505.81 3883.22 4295.35 3983.18C4178.18 4032.75 4096.28 4127.4 4004.22 4237.46L4004.21 4237.47V4237.46C3912.14 4127.4 3830.25 4032.75 3713.08 3983.18C3502.63 3883.22 3269.09 3874.58 3089.13 3869.32C3032.06 3859.07 3002.01 3832.42 2981.54 3774.98L2876.58 2888.5L2803.8 2891.21C2777.01 2898.68 2769.19 2908.1 2763.18 2931.33L2946.2 3908.9C2958.85 3938.64 2971.08 3945.29 2997.36 3951.73C3524.26 3879.63 3815.13 4075.16 4004.22 4341.02C4193.3 4075.16 4484.17 3879.63 5011.06 3951.73C5037.36 3945.29 5049.58 3938.64 5062.23 3908.9L5245.25 2931.33C5239.23 2908.1 5231.43 2898.68 5204.63 2891.21L5131.84 2888.5L5026.89 3774.98ZM7065.45 4095.63C7080.77 4088.49 7103.19 4085.95 7132.7 4087.99L7308.04 4100.13C7327.85 4101.49 7343.1 4106.64 7353.8 4115.58C7364.47 4124.91 7371.63 4137.11 7375.26 4152.19C7379.26 4167.68 7380.58 4185.33 7379.21 4205.14C7377.83 4224.94 7374.1 4242.24 7368.01 4257.04C7362.3 4271.86 7353.53 4283.16 7341.66 4290.92C7329.78 4299.07 7313.94 4302.46 7294.13 4301.1L7119.38 4289C7089.48 4286.93 7067.46 4280.92 7053.32 4270.96C7039.15 4261.4 7030.07 4248.87 7026.07 4233.38C7022.45 4217.91 7021.33 4200.28 7022.71 4180.47C7024.07 4160.66 7027.62 4143.35 7033.32 4128.52C7039.39 4114.11 7050.1 4103.15 7065.45 4095.63ZM963.448 4149.15L799.448 4216.42L967.235 4205.08L972.035 4276.16L627.726 4299.43L623.001 4229.52L802.691 4160.61L619.182 4173.01L614.414 4102.52L958.724 4079.24L963.448 4149.15ZM2695.91 4183.55L2747.41 4225.68C2766.44 4226.76 2771.34 4221.16 2768.73 4198.12L2702.67 4167.95L2632.45 4135.7L2695.91 4183.55ZM7096.35 4165.08C7090.13 4164.65 7085.04 4165.08 7081.05 4166.36C7077.41 4168.06 7074.71 4170.41 7072.95 4173.41C7071.18 4176.4 7070.15 4179.85 7069.89 4183.73C7069.62 4187.62 7070.16 4191.17 7071.5 4194.38C7072.81 4197.98 7075.16 4200.68 7078.54 4202.47C7082.31 4204.3 7087.32 4205.42 7093.53 4205.86L7303.23 4220.36C7309.07 4220.77 7313.97 4220.33 7317.96 4219.04C7321.95 4217.76 7324.84 4215.42 7326.65 4212.03C7328.41 4209.03 7329.43 4205.6 7329.7 4201.71C7329.96 4197.82 7329.43 4194.28 7328.1 4191.06C7326.75 4187.85 7324.21 4185.14 7320.46 4182.92C7316.68 4181.11 7311.88 4179.99 7306.06 4179.59L7096.35 4165.08ZM5079.63 2742.65C4989.42 2802.35 4941.72 2827.73 4845.99 2862.48C4699.53 2891.46 4600.19 2901.69 4423.06 2919.94L4422.99 2919.95C4246.88 2921.56 4155.05 2973.81 4004.22 3169.88V3169.89L4004.21 3169.9V3169.88C3853.38 2973.81 3761.55 2921.56 3585.44 2919.95L3585.37 2919.94C3408.23 2901.69 3308.9 2891.46 3162.45 2862.48C3066.71 2827.73 3019.01 2802.35 2928.79 2742.65L3052.22 3738.66C3054.08 3744.33 3055.53 3749.74 3056.9 3754.83V3754.84C3064 3781.38 3068.76 3799.13 3119.19 3801C3502.97 3815.34 3800.23 3871.58 4004.22 4126.86C4208.21 3871.58 4505.46 3815.34 4889.23 3801C4939.67 3799.13 4944.42 3781.38 4951.53 3754.83C4952.9 3749.74 4954.34 3744.33 4956.22 3738.66L5079.63 2742.65ZM7305.95 3799.09C7325.8 3798.66 7341.47 3802.59 7352.93 3810.91C7364.42 3819.61 7372.67 3831.5 7377.67 3846.58C7383.07 3862.04 7385.99 3879.69 7386.43 3899.53C7386.87 3920.16 7384.73 3937.93 7380 3952.82C7375.65 3967.72 7367.92 3979.18 7356.8 3987.21C7345.7 3995.63 7330.22 4000.06 7310.37 4000.5L7233.9 4002.17L7232.12 3921.03L7312.1 3919.27C7319.1 3919.12 7324.34 3918.23 7327.8 3916.6C7331.28 3914.95 7333.56 3912.77 7334.67 3910.02C7336.18 3907.65 7336.89 3904.52 7336.8 3900.63C7336.72 3897.12 7335.88 3894.03 7334.26 3891.34C7333.03 3888.64 7330.65 3886.55 7327.11 3885.07C7323.58 3883.58 7318.31 3882.92 7311.3 3883.08L7101.15 3887.7C7094.52 3887.84 7089.29 3888.74 7085.43 3890.38C7081.57 3892.02 7079.09 3894.22 7077.98 3896.97C7076.88 3899.71 7076.36 3902.85 7076.43 3906.35C7076.52 3910.24 7077.18 3913.33 7078.39 3915.65C7079.62 3918.35 7082.2 3920.43 7086.13 3921.9C7090.05 3923.37 7095.32 3924.03 7101.94 3923.89L7176.08 3922.26L7177.86 4003.4L7135.25 4004.34C7105.27 4005 7082.81 4001.41 7067.84 3993.56C7052.88 3986.1 7042.7 3975.03 7037.33 3960.35C7032.33 3945.66 7029.6 3928.01 7029.15 3907.38C7028.71 3887.15 7030.65 3869.39 7034.99 3854.11C7039.72 3838.82 7049.37 3826.54 7063.96 3817.26C7078.56 3808.37 7100.66 3803.6 7130.23 3802.95L7305.95 3799.09ZM4034.81 3966.37H3972.58V3279.96H4034.81V3966.37ZM960.232 3860.24L958.312 3941.39L613.32 3933.26L615.229 3852.12L960.232 3860.24ZM3229.96 3536.96C3534.94 3535.58 3618.85 3545.54 3721.52 3613.94V3671.96C3561.4 3614.17 3458.98 3590.47 3225.21 3607.45L3229.96 3536.96ZM4286.92 3613.94C4389.58 3545.54 4473.49 3535.58 4778.48 3536.96L4783.22 3607.45C4549.45 3590.47 4447.02 3614.17 4286.92 3671.96V3613.94ZM3222.05 3314.66C3528.4 3296.46 3633.6 3302.06 3732.6 3390.03L3725.74 3450.75C3579.46 3382.19 3460.48 3354.98 3222.05 3379.18V3314.66ZM4275.83 3390.03C4374.83 3302.06 4480.04 3296.46 4786.38 3314.66V3379.18C4547.95 3354.98 4428.97 3382.19 4282.69 3450.75L4275.83 3390.03ZM3195.15 3066.34C3481.09 3054.52 3625.93 3056.68 3750 3136.82V3187.79C3475.73 3121.56 3361.52 3115.53 3200.95 3137.91L3195.15 3066.34ZM4258.43 3136.82C4382.5 3056.68 4527.34 3054.52 4813.28 3066.34L4807.48 3137.91C4646.91 3115.53 4532.71 3121.56 4258.43 3187.79V3136.82ZM6891.73 2362.5C6909.36 2353.38 6925.08 2349.86 6938.86 2351.92C6953.16 2354.16 6965.79 2360.79 6976.73 2371.78C6987.68 2382.77 6997.8 2397.26 7007.1 2415.24C7016.22 2432.87 7022.01 2449.6 7024.5 2465.41C7027.31 2481.05 7025.68 2495.25 7019.59 2508.04C7013.67 2521.18 7001.91 2532.31 6984.26 2541.43L6939.14 2564.77L6902.93 2494.75L6952.21 2469.27C6958.43 2466.05 6962.65 2462.77 6964.87 2459.43C6967.26 2456.44 6968.26 2453.29 6967.87 2449.98C6968.01 2446.85 6966.99 2443.21 6964.85 2439.06C6963.07 2435.61 6960.77 2432.85 6957.95 2430.79C6955.49 2428.57 6952.24 2427.39 6948.24 2427.27C6944.41 2427.5 6939.39 2429.23 6933.16 2432.44L6746.44 2529C6740.56 2532.04 6736.25 2535.15 6733.51 2538.31C6730.95 2541.83 6729.86 2545.25 6730.26 2548.54C6730.65 2551.85 6731.74 2555.23 6733.53 2558.69C6736.57 2564.56 6740.63 2568.17 6745.69 2569.49C6750.93 2571.16 6757.53 2569.94 6765.49 2565.82L6824.62 2535.25L6814.96 2516.58L6855.41 2495.66L6901.28 2584.35L6743.6 2665.89L6715.44 2611.43L6735.35 2596.53C6735.01 2596.71 6734.4 2596.81 6733.52 2596.82C6733 2596.65 6732.48 2596.49 6731.96 2596.32C6724.99 2596.42 6716.59 2593.74 6706.77 2588.31C6697.47 2583.03 6688.8 2572.62 6680.75 2557.06C6675.03 2545.99 6671.39 2534.29 6669.83 2521.95C6668.45 2509.95 6671.85 2497.46 6680.02 2484.47C6688.38 2471.82 6703.98 2459.59 6726.79 2447.79L6891.73 2362.5ZM1058.7 2347.85C1072.85 2345.11 1088.73 2348.31 1106.35 2357.45L1151.43 2380.86L1115.11 2450.83L1065.88 2425.26C1059.66 2422.04 1054.54 2420.48 1050.54 2420.59C1046.71 2420.36 1043.57 2421.35 1041.09 2423.58C1038.46 2425.28 1036.06 2428.2 1033.9 2432.35C1032.11 2435.81 1031.19 2439.27 1031.14 2442.75C1030.73 2446.06 1031.64 2449.38 1033.86 2452.73C1036.25 2455.72 1040.56 2458.83 1046.78 2462.06L1233.34 2558.92C1239.21 2561.96 1244.24 2563.7 1248.41 2564.11C1252.76 2564.17 1256.17 2563.09 1258.64 2560.88C1261.11 2558.65 1263.25 2555.81 1265.04 2552.35C1268.09 2546.48 1268.7 2541.09 1266.85 2536.18C1265.19 2530.93 1260.39 2526.25 1252.44 2522.12L1193.37 2491.46L1183.67 2510.11L1143.26 2489.12L1189.26 2400.5L1346.81 2482.29L1318.55 2536.71L1294.9 2529.04C1295.26 2529.22 1295.68 2529.65 1296.19 2530.37C1296.35 2530.89 1296.53 2531.41 1296.7 2531.94C1300.78 2537.57 1303.44 2545.97 1304.66 2557.13C1305.72 2567.77 1302.21 2580.86 1294.15 2596.41C1288.4 2607.47 1280.94 2617.18 1271.76 2625.58C1262.75 2633.62 1250.59 2638.05 1235.26 2638.86C1220.1 2639.33 1201.12 2633.64 1178.32 2621.8L1013.52 2536.25C995.896 2527.09 983.96 2516.3 977.709 2503.84C971.299 2490.86 969.421 2476.73 972.088 2461.44C974.755 2446.17 980.76 2429.54 990.083 2411.57C999.235 2393.95 1009.55 2379.57 1021.04 2368.43C1032.18 2357.11 1044.73 2350.25 1058.7 2347.85ZM4000.52 1220.71C4073.59 1260.92 4107.48 1295.74 4158.22 1374.15C4205.16 1472.11 4223.19 1531.48 4223.09 1651.75C4227.24 1737.19 4220.77 1785.26 4200.95 1867.01C4172.25 1966.3 4127.13 2023.94 4039.55 2079.55C4028.52 2088.21 4049.26 2123.82 4083.33 2159.25C4164.32 2219.82 4192.76 2232.47 4222.04 2228.11C4265.53 2228.85 4293.11 2211.24 4345.98 2159.25C4403.04 2135.98 4438.38 2130.91 4498.41 2125.63C4486.45 2188.73 4471.7 2222.31 4439.87 2274.74C4382.73 2363.17 4342.7 2406.9 4254.74 2467.75C4161.67 2519.37 4106.83 2532.16 4000.52 2537.7C3894.22 2532.16 3838.85 2519.37 3745.77 2467.75C3657.81 2406.9 3617.78 2363.17 3560.65 2274.74C3528.82 2222.31 3514.06 2188.73 3502.1 2125.63C3562.14 2130.91 3597.47 2135.98 3654.53 2159.25C3707.4 2211.24 3734.98 2228.85 3778.47 2228.11C3807.75 2232.47 3836.2 2219.82 3917.18 2159.25C3951.25 2123.82 3971.99 2088.21 3960.96 2079.55C3873.37 2023.94 3828.25 1966.3 3799.57 1867.01C3779.75 1785.26 3773.27 1737.19 3777.42 1651.75C3777.32 1531.48 3795.36 1472.11 3842.29 1374.15C3893.03 1295.74 3927.46 1260.92 4000.52 1220.71ZM6834.31 2126.29L6709.78 2273.04L6864.8 2174.03L6902.82 2233.58L6611.98 2419.32L6574.27 2360.27L6685.83 2222.51L6544.09 2313.02L6505.76 2252.98L6796.59 2067.24L6834.31 2126.29ZM1217.33 2087.15C1231.67 2085.7 1247.19 2090.34 1263.91 2101.05L1411.39 2195.56C1436.63 2211.73 1453.07 2227.58 1460.68 2243.1C1468.52 2258.29 1470.48 2273.64 1466.54 2289.16C1462.28 2304.46 1454.8 2320.47 1444.09 2337.18C1433.38 2353.9 1421.95 2367.39 1409.83 2377.65C1397.59 2387.38 1382.92 2391.85 1365.86 2391.08C1348.98 2389.98 1328.1 2381.45 1303.19 2365.48L1155.21 2270.66C1138.5 2259.94 1127.6 2248.1 1122.5 2235.12C1117.61 2221.82 1117.2 2207.68 1121.25 2192.7C1125.17 2177.19 1132.5 2161.08 1143.21 2144.36C1153.92 2127.65 1165.51 2114.27 1177.95 2104.21C1190.08 2093.95 1203.21 2088.27 1217.33 2087.15ZM1203.62 2161.58C1199.5 2160.79 1195.84 2161.45 1192.64 2163.56C1189.64 2165.34 1187.09 2167.87 1185 2171.15C1182.9 2174.42 1181.67 2177.79 1181.29 2181.26C1180.93 2184.71 1181.86 2188.32 1184.08 2192.06C1186.52 2195.47 1190.2 2198.75 1195.12 2201.9L1372.1 2315.33C1377.33 2318.69 1382.02 2320.76 1386.13 2321.55C1390.13 2321.8 1393.63 2321.04 1396.62 2319.25C1399.62 2317.47 1402.17 2314.94 1404.27 2311.67C1406.36 2308.38 1407.6 2305.02 1407.97 2301.56C1408.54 2297.77 1407.78 2294.27 1405.68 2291.07C1403.23 2287.66 1399.39 2284.28 1394.15 2280.91L1217.16 2167.49C1212.25 2164.34 1207.73 2162.37 1203.62 2161.58ZM1633.37 2061.73L1562.75 2152.53L1257.72 1982.62L1308.98 1916.71L1533.25 2056.36L1533.61 2055.9L1344.82 1870.62L1394.29 1807.01L1633.37 2061.73ZM6697.26 1930.91L6424.52 2142.33L6374.79 2078.18L6647.54 1866.76L6697.26 1930.91ZM4000.52 1303.67C3971.56 1325.7 3957.3 1341.35 3934.59 1374.15C3871.29 1483.2 3853.79 1543.3 3850.73 1651.75C3852.59 1740.06 3859 1787.42 3883.43 1867.01C3916.99 1942.72 3944.2 1984.42 4000.52 2008.52C4056.83 1984.42 4083.53 1942.72 4117.09 1867.01C4141.51 1787.42 4147.92 1740.06 4149.78 1651.75C4146.72 1543.3 4129.21 1483.2 4065.92 1374.15C4043.21 1341.35 4029.48 1325.7 4000.52 1303.67ZM6492.84 1685.73C6509.3 1703.38 6517.52 1720.19 6517.52 1736.16C6517.79 1751.87 6511.53 1765.71 6498.72 1777.65L6459.42 1814.28C6446.9 1825.96 6432.75 1833.04 6416.96 1835.52C6401.44 1838.28 6385.93 1832.79 6370.43 1819.02L6369.58 1819.82C6376.9 1831.09 6380 1840.98 6378.87 1849.47C6378.04 1857.71 6373.67 1868.16 6365.79 1880.83L6300.18 1985.13L6238.86 1919.36L6306.6 1825.06C6311.54 1817.79 6315.19 1811.72 6317.57 1806.85C6320.22 1801.71 6320.36 1797.86 6317.97 1795.3L6311.2 1788.03L6207 1885.19L6149.26 1823.27L6401.65 1587.92L6492.84 1685.73ZM1625.97 1636.51L1572.11 1694.08L1630.11 1748.33L1677.18 1698.02L1723.67 1741.49L1676.59 1791.81L1742.27 1853.24L1796.11 1795.67L1836.63 1833.57L1724.94 1952.97L1472.91 1717.22L1584.6 1597.82L1625.97 1636.51ZM3735.5 1871.05L3550.53 1923.14L3532.68 1856.2L3717.66 1804.12L3735.5 1871.05ZM4452.73 1856.2L4434.9 1923.14L4249.93 1871.05L4267.76 1804.12L4452.73 1856.2ZM1819.45 1402.17C1835.17 1402.24 1848.84 1408.82 1860.5 1421.9L1896.23 1462.02C1907.63 1474.8 1914.38 1489.12 1916.5 1504.96C1918.9 1520.54 1913.05 1535.91 1898.94 1551.09L1899.72 1551.97C1911.16 1544.91 1921.11 1542.04 1929.58 1543.35C1937.79 1544.37 1948.14 1548.97 1960.63 1557.14L2063.4 1625.11L1996.25 1684.93L1903.52 1615.05C1896.37 1609.95 1890.39 1606.15 1885.57 1603.67C1880.49 1600.9 1876.64 1600.67 1874.03 1603.01L1866.61 1609.61L1961.37 1716L1898.15 1772.31L1668.62 1514.62L1768.47 1425.69C1786.48 1409.63 1803.49 1401.79 1819.45 1402.17ZM6352.63 1749.41L6364.97 1762.64C6370.28 1768.34 6375.98 1770.74 6382.07 1769.86C6388.43 1769.25 6395.87 1764.96 6404.42 1757L6433.46 1729.92C6441.99 1721.95 6446.77 1715.37 6447.77 1710.18C6448.79 1704.98 6446.9 1699.82 6442.12 1694.7L6427.79 1679.32L6352.63 1749.41ZM6316.58 1505.83L6278.83 1548.06L6220.06 1495.54L6167.14 1554.75L6218.52 1600.66L6176.11 1648.12L6124.73 1602.21L6064.81 1669.26L6123.59 1721.79L6086.63 1763.15L5964.72 1654.21L6194.66 1396.89L6316.58 1505.83ZM3686.32 1683.15L3496.2 1709.06L3487.33 1640.26L3677.45 1614.35L3686.32 1683.15ZM4498.1 1640.26L4489.22 1709.06L4299.1 1683.15L4307.97 1614.35L4498.1 1640.26ZM2269.87 1470.03L2213.53 1511.68L2068.49 1409.78L2168.46 1545.01L2111.18 1587.36L1906.02 1309.87L1962.37 1268.21L2117.25 1382.44L2007.91 1234.54L2064.72 1192.53L2269.87 1470.03ZM6082.67 1305.17L6048.92 1350.67L5985.62 1303.7L5938.31 1367.48L5993.65 1408.53L5955.73 1459.65L5900.39 1418.6L5846.81 1490.83L5910.13 1537.78L5877.07 1582.34L5745.77 1484.93L5951.36 1207.77L6082.67 1305.17ZM1791.88 1471.3C1786.71 1470.17 1781.51 1471.94 1776.28 1476.6L1760.58 1490.57L1828.94 1567.32L1842.45 1555.27C1848.27 1550.1 1850.79 1544.45 1850.05 1538.35C1849.59 1531.98 1845.47 1524.43 1837.71 1515.71L1811.29 1486.06C1803.53 1477.34 1797.05 1472.42 1791.88 1471.3ZM3688.47 1477.72L3674.44 1545.61L3486.84 1504.65L3500.86 1436.76L3688.47 1477.72ZM4498.59 1504.65L4310.98 1545.61L4296.96 1477.72L4484.56 1436.76L4498.59 1504.65ZM2538.34 1302.8L2477.44 1339.76L2348.37 1127.12L2444 1360.05L2397.08 1388.54L2234.56 1196.2L2363.64 1408.84L2302.74 1445.8L2123.67 1150.81L2211.02 1097.78L2344.48 1249.01L2272.42 1060.51L2359.27 1007.8L2538.34 1302.8ZM5733.57 1066.97L5686.25 1253.51L5781.94 1096.44L5842.28 1133.19L5662.74 1427.9L5602.9 1391.46L5642.52 1218.67L5555.03 1362.28L5494.19 1325.23L5673.73 1030.51L5733.57 1066.97ZM3740.71 1309.21L3710.41 1371.22L3539.02 1282.74L3569.32 1220.71L3740.71 1309.21ZM4446.4 1282.74L4275.02 1371.22L4244.71 1309.21L4416.1 1220.71L4446.4 1282.74ZM2613.66 944.864L2542.84 979.467L2577.71 1050.82L2639.62 1020.57L2667.55 1077.76L2605.64 1108L2645.12 1188.8L2715.95 1154.19L2740.3 1204.03L2593.41 1275.81L2441.9 965.75L2588.8 893.974L2613.66 944.864ZM5524.57 951.756L5372.57 1261.57L5299.7 1225.83L5451.69 916.001L5524.57 951.756ZM5113.58 805.121C5125.75 797.27 5139.58 793.793 5155.06 794.71C5170.55 795.627 5187.75 799.702 5206.66 806.934C5225.2 814.016 5240.66 822.635 5253.04 832.779C5265.55 842.561 5273.79 854.262 5277.76 867.862C5282.09 881.601 5280.72 897.74 5273.63 916.289L5255.49 963.744L5181.86 935.605L5201.67 883.787C5204.16 877.238 5205.13 871.98 5204.57 868.012C5204.36 864.193 5203.01 861.174 5200.53 858.966C5198.53 856.545 5195.35 854.497 5190.99 852.822C5187.35 851.436 5183.8 850.913 5180.34 851.254C5177.02 851.233 5173.82 852.513 5170.74 855.094C5168.05 857.814 5165.44 862.444 5162.94 868.982L5087.9 1065.34C5085.53 1071.53 5084.39 1076.72 5084.45 1080.91C5084.88 1085.24 5086.34 1088.5 5088.82 1090.71C5091.32 1092.91 5094.38 1094.7 5098.02 1096.1C5104.21 1098.45 5109.62 1098.44 5114.29 1096.06C5119.31 1093.81 5123.43 1088.51 5126.62 1080.14L5150.38 1017.96L5130.74 1010.46L5147.01 967.915L5240.28 1003.56L5176.91 1169.38L5119.64 1147.49L5124.58 1123.12C5124.44 1123.49 5124.05 1123.96 5123.41 1124.54C5122.9 1124.77 5122.4 1124.99 5121.9 1125.22C5116.76 1129.93 5108.72 1133.53 5097.77 1136C5087.32 1138.26 5073.92 1136.27 5057.55 1130.02C5045.92 1125.57 5035.41 1119.25 5026.03 1111.08C5017.02 1103.06 5011.23 1091.47 5008.69 1076.33C5006.5 1061.32 5010 1041.82 5019.17 1017.82L5085.45 844.374C5092.54 825.825 5101.91 812.748 5113.58 805.121ZM3009.04 1096.67L2943.55 1121.58L2831.38 984.332L2891.16 1141.5L2824.58 1166.84L2701.9 844.278L2767.39 819.372L2885.72 971.158L2820.33 799.233L2886.37 774.124L3009.04 1096.67ZM4885.37 706.357L4890.13 898.752L4939.9 721.686L5007.91 740.801L4914.54 1073.02L4847.09 1054.06L4838.62 877.003L4793.13 1038.89L4724.54 1019.62L4817.92 687.393L4885.37 706.357ZM3191.05 742.54L3141 756.523L3218.6 1034.34L3140.99 1056.02L3063.39 778.198L3013.9 792.022L2998.66 737.473L3175.82 687.99L3191.05 742.54ZM4697.45 660.021L4687.14 715.713L4609.63 701.377L4595.19 779.467L4662.94 792L4651.36 854.582L4583.6 842.049L4567.25 930.475L4644.76 944.812L4634.67 999.36L4473.91 969.622L4536.68 630.283L4697.45 660.021Z" fill="black"/>
</svg>
